<svg xmlns="http://www.w3.org/2000/svg" viewBox="0 0 699 626" fill="none">
<path d="M213.062 53.4074L233.108 0H401.23L334.951 163.459C334.951 163.459 321.049 133.033 279.665 96.7808C238.281 60.5284 213.062 53.4074 213.062 53.4074Z" fill="#ffffff"/>
<path d="M342.387 179.32L410.283 7.44467L567.089 356.697H420.952L342.387 179.32Z" fill="#ffffff"/>
<path d="M49.4667 479.049L184.934 127.531C184.934 127.531 225.348 126.236 265.116 148.246C304.883 170.256 324.282 214.277 324.282 214.277L271.259 356.697C271.259 356.697 224.378 358.963 159.716 382.268C95.0536 405.573 49.4667 479.049 49.4667 479.049Z" fill="#ffffff"/>
<path d="M272.875 495.233V358.963H461.689C471.389 358.963 483.351 362.523 491.757 371.91C500.163 381.297 500.163 378.06 500.163 385.828V495.233H272.875Z" fill="#ffffff"/>
<path d="M0 626L46.5569 495.233H224.378L172.972 626H0Z" fill="#ffffff"/>
<path d="M699 625.676V495.233H502.103V548.64C502.103 562.558 511.156 575.182 524.412 595.574C537.667 615.966 552.216 625.676 562.239 625.676H699Z" fill="#ffffff"/>
</svg>